<svg width="460" height="460" viewBox="0 0 460 460" fill="none" xmlns="http://www.w3.org/2000/svg">
<path d="M407.11 393.052C397.741 402.88 388.876 409.218 381.872 414.226C299.54 473.088 202.12 455.93 181.415 451.74C150.841 445.552 91.7421 433.592 49.0146 383.525C-15.6286 307.778 -5.56283 188.441 44.5789 109.664C53.7506 95.255 102.198 15.2787 200.668 2.45316C260.26 -5.30883 329.726 10.3461 380.032 52.3411C485.627 140.492 478.11 318.574 407.11 393.052Z" fill="url(#paint0_linear_1011_673)"/>
<path d="M28.4446 41.9616L226.906 44.8944C237.855 45.0563 246.756 53.7391 247.151 64.6431L257.533 351.562C257.842 360.095 250.999 367.187 242.43 367.215L14.9065 367.973C6.85497 368 0.347039 361.441 0.466461 353.419L4.76123 64.8703C4.95244 52.0277 15.5559 41.7711 28.4446 41.9616Z" fill="url(#paint1_linear_1011_673)"/>
<path d="M29.0797 39.6462C56.1269 43.7087 149.154 56.4121 226.295 51.6571C229.813 51.4402 232.823 54.1381 232.958 57.6476L244.032 345.855C244.184 349.807 241.108 353.138 237.143 353.314C204.707 354.746 71.1345 360.161 23.6043 354.489C20.7116 354.144 18.5485 351.681 18.5744 348.777L21.2908 46.2693C21.3277 42.1603 25.0016 39.0337 29.0797 39.6462Z" fill="url(#paint2_linear_1011_673)"/>
<path d="M31.8835 47.1594C57.9123 51.0691 147.436 63.2941 221.672 58.7181C225.058 58.5094 227.955 61.1057 228.084 64.4831L238.742 341.838C238.888 345.64 235.927 348.847 232.111 349.015C200.897 350.394 72.3545 355.605 26.6141 350.146C23.8303 349.814 21.7487 347.444 21.7737 344.65L24.3876 53.5332C24.4233 49.5788 27.959 46.5699 31.8835 47.1594Z" fill="#91B3FA"/>
<path opacity="0.78" d="M48.1739 75.2573L50.0597 134.713C50.1223 136.691 51.7011 138.286 53.6849 138.371C64.7235 138.845 99.1225 140.189 118.567 139.467C120.767 139.385 122.532 137.64 122.638 135.449C123.174 124.312 124.467 91.8925 122.121 78.2975C121.742 76.1014 119.877 74.4689 117.643 74.3579L52.4038 71.1189C50.0509 71.002 48.0995 72.9115 48.1739 75.2573Z" fill="white"/>
<path d="M95.795 104.616C99.9829 98.9278 98.7501 90.9337 93.0413 86.7608C87.3326 82.5879 79.3098 83.8164 75.1219 89.5046C70.934 95.1929 72.1669 103.187 77.8756 107.36C83.5843 111.533 91.6071 110.304 95.795 104.616Z" fill="#91B3FA"/>
<path d="M65.4086 134.266L106.246 134.869C108.75 134.906 110.291 132.174 108.974 130.052C105.586 124.592 98.4465 116.54 85.8722 116.713C73.7531 116.879 66.4662 123.95 62.7802 129.044C61.2152 131.206 62.7334 134.226 65.4086 134.266Z" fill="#91B3FA"/>
<g opacity="0.6">
<path d="M213.075 82.8675C213.437 82.873 213.728 82.5827 213.723 82.2227L213.684 79.5439C213.679 79.1838 213.38 78.8797 213.018 78.8679L138.125 76.4305C137.763 76.4188 137.562 76.6885 137.677 77.0299L139.067 81.1565C139.182 81.4979 139.571 81.7815 139.933 81.7868L213.075 82.8675Z" fill="white"/>
</g>
<g opacity="0.6">
<path d="M137.988 87.5062C137.627 87.4944 137.425 87.7642 137.54 88.1056L138.93 92.232C139.045 92.5734 139.435 92.8571 139.796 92.8623L212.939 93.9432C213.3 93.9486 213.592 93.6584 213.586 93.2983L213.548 90.6196C213.542 90.2595 213.243 89.9554 212.882 89.9436L137.988 87.5062Z" fill="white"/>
</g>
<g opacity="0.6">
<path d="M137.824 98.7445C137.463 98.7327 137.261 99.0025 137.376 99.3439L138.766 103.47C138.881 103.812 139.271 104.095 139.632 104.101L212.775 105.182C213.136 105.187 213.428 104.897 213.422 104.537L213.384 101.858C213.379 101.498 213.079 101.194 212.718 101.182L137.824 98.7445Z" fill="white"/>
</g>
<g opacity="0.6">
<path d="M218.927 159.476C219.289 159.481 219.569 159.191 219.551 158.831L219.413 156.149C219.395 155.789 219.084 155.488 218.723 155.48L47.7192 151.61C47.358 151.601 47.243 151.828 47.464 152.113L50.8484 156.48C51.0693 156.764 51.5457 157.002 51.9071 157.007L218.927 159.476Z" fill="white"/>
</g>
<g opacity="0.6">
<path d="M47.5552 162.687C47.194 162.679 47.079 162.905 47.2999 163.19L50.6843 167.557C50.9052 167.842 51.3816 168.079 51.743 168.085L218.763 170.553C219.125 170.558 219.405 170.268 219.387 169.909L219.249 167.226C219.231 166.866 218.92 166.565 218.559 166.557L47.5552 162.687Z" fill="white"/>
</g>
<path d="M70.5682 205.842C70.5357 205.842 70.503 205.841 70.4705 205.84L56.3199 205.496C54.2917 205.446 52.6377 204.031 52.4732 202.203L51.4048 190.352C51.3418 189.653 51.5699 188.966 52.0463 188.418C52.5797 187.805 53.3782 187.427 54.237 187.381C55.4304 187.318 57.1108 187.2 58.8903 187.076C62.6039 186.815 67.2177 186.493 69.853 186.493C69.8775 186.493 69.902 186.493 69.9258 186.493C71.8176 186.497 73.4357 187.661 73.86 189.323C74.5579 192.053 74.4162 197.194 74.1946 202.669C74.1228 204.436 72.5058 205.842 70.5682 205.842ZM54.2966 188.488C53.7371 188.518 53.2238 188.757 52.887 189.144C52.6101 189.463 52.477 189.857 52.5128 190.254L53.5812 202.104C53.6952 203.37 54.8843 204.352 56.347 204.388L70.4976 204.733C71.874 204.761 73.0342 203.821 73.083 202.625C73.3013 197.235 73.4426 192.182 72.7821 189.597C72.4872 188.444 71.2851 187.605 69.9233 187.601C69.8993 187.601 69.8755 187.601 69.8522 187.601C67.2564 187.601 62.6644 187.923 58.9682 188.182C57.1841 188.306 55.4985 188.424 54.2966 188.488Z" fill="white"/>
<g opacity="0.6">
<path d="M82.5918 193.735C82.2304 193.729 82.006 194.009 82.0929 194.359L83.537 200.162C83.6239 200.512 83.9909 200.799 84.3522 200.801L216.063 201.374C216.424 201.376 216.718 201.082 216.715 200.722L216.687 196.769C216.685 196.409 216.387 196.109 216.026 196.103L82.5918 193.735Z" fill="white"/>
</g>
<path d="M56.3768 191.583C57.4367 190.985 58.7834 191.371 59.3611 192.44L62.0784 197.467C62.3504 197.971 63.0819 197.95 63.3245 197.432L70.4769 182.175C70.8337 181.414 71.9748 181.69 71.9497 182.53C71.8091 187.227 70.4251 196.139 62.7803 203.502C62.7803 203.502 58.6528 201.833 55.4182 194.468C54.9512 193.404 55.3633 192.156 56.3768 191.583Z" fill="url(#paint3_linear_1011_673)"/>
<path d="M70.1042 236.065C70.0717 236.065 70.0385 236.064 70.0058 236.064L55.8552 235.719C53.827 235.67 52.1736 234.254 52.0084 232.426L50.94 220.576C50.8769 219.876 51.1051 219.19 51.5814 218.642C52.1148 218.028 52.9127 217.651 53.7715 217.605C54.9637 217.541 56.6427 217.424 58.4199 217.299C62.1351 217.039 66.7515 216.716 69.3882 216.716C69.4126 216.716 69.4371 216.716 69.4609 216.716C71.3533 216.72 72.9708 217.885 73.3951 219.546C74.0926 222.275 73.9513 227.416 73.7293 232.893C73.6576 234.66 72.0412 236.065 70.1042 236.065ZM53.8316 218.712C53.2726 218.741 52.7594 218.98 52.4227 219.367C52.1457 219.686 52.0125 220.08 52.0485 220.477L53.1168 232.327C53.2309 233.594 54.42 234.576 55.8826 234.611L70.0332 234.956C70.0572 234.956 70.081 234.957 70.1044 234.957C71.4497 234.957 72.5704 234.023 72.6182 232.848C72.8365 227.457 72.9777 222.404 72.3177 219.82C72.0228 218.667 70.8207 217.828 69.4585 217.824C69.4351 217.824 69.4112 217.824 69.3873 217.824C66.7909 217.824 62.1969 218.146 58.4984 218.405C56.7158 218.53 55.0325 218.647 53.8316 218.712Z" fill="white"/>
<path opacity="0.6" d="M55.37 219.943C58.3462 219.784 64.8177 219.226 67.8831 219.233C69.1819 219.236 70.3093 220.035 70.5971 221.161C71.1561 223.349 71.0132 227.692 70.8507 231.699C70.8021 232.9 69.6811 233.842 68.33 233.809L57.0219 233.533C55.6314 233.499 54.4907 232.537 54.3795 231.305L53.526 221.835C53.4378 220.855 54.267 220.001 55.37 219.943Z" fill="white"/>
<g opacity="0.6">
<path d="M82.1894 223.958C81.8281 223.951 81.6037 224.232 81.6906 224.581L83.1348 230.385C83.2217 230.734 83.5887 231.022 83.9501 231.023L215.66 231.597C216.022 231.598 216.315 231.305 216.313 230.945L216.285 226.992C216.282 226.632 215.985 226.332 215.623 226.325L82.1894 223.958Z" fill="white"/>
</g>
<path d="M69.6854 266.289C69.6528 266.289 69.6202 266.289 69.5876 266.288L55.437 265.943C53.4083 265.894 51.7543 264.478 51.5904 262.651L50.522 250.8C50.4591 250.101 50.6871 249.414 51.1641 248.866C51.697 248.253 52.4948 247.875 53.3536 247.829C54.547 247.765 56.2281 247.648 58.008 247.523C61.9118 247.25 66.332 246.94 68.9647 246.94C68.9913 246.94 69.0168 246.94 69.0429 246.94C70.9348 246.945 72.5528 248.109 72.9771 249.771C73.6746 252.499 73.5333 257.64 73.3112 263.117C73.2393 264.884 71.6224 266.289 69.6854 266.289ZM53.4132 248.936C52.8542 248.965 52.3411 249.204 52.0043 249.591C51.7274 249.91 51.5943 250.304 51.6301 250.701L52.6985 262.551C52.812 263.818 54.001 264.8 55.4643 264.835L69.6149 265.18C70.9885 265.214 72.151 264.268 72.1998 263.072C72.4181 257.681 72.5594 252.628 71.8994 250.044C71.6043 248.891 70.4024 248.052 69.0406 248.049C66.4329 248.056 61.816 248.367 58.0855 248.629C56.3012 248.754 54.6152 248.872 53.4132 248.936Z" fill="white"/>
<path opacity="0.6" d="M54.8936 250.167C57.8698 250.009 64.3413 249.45 67.4067 249.458C68.7055 249.461 69.8327 250.259 70.1207 251.386C70.6797 253.574 70.5368 257.916 70.3743 261.924C70.3257 263.124 69.2047 264.066 67.8535 264.033L56.5453 263.758C55.1548 263.724 54.0141 262.762 53.9029 261.529L53.0494 252.06C52.9613 251.08 53.7904 250.226 54.8936 250.167Z" fill="white"/>
<g opacity="0.6">
<path d="M81.7129 254.183C81.3515 254.176 81.1271 254.457 81.214 254.807L82.6582 260.61C82.7453 260.96 83.1121 261.247 83.4735 261.248L215.184 261.821C215.545 261.823 215.839 261.53 215.836 261.17L215.808 257.217C215.806 256.856 215.508 256.557 215.147 256.55L81.7129 254.183Z" fill="white"/>
</g>
<path d="M69.2208 296.514C69.1882 296.514 69.1555 296.514 69.123 296.513L54.9724 296.168C52.9442 296.119 51.2897 294.703 51.1251 292.875L50.0572 281.025C49.9941 280.326 50.2218 279.639 50.6982 279.091C51.231 278.478 52.03 278.1 52.8888 278.054C54.0816 277.99 55.7627 277.873 57.5422 277.748C61.2906 277.486 65.9739 277.154 68.5783 277.165C70.4697 277.17 72.0872 278.333 72.5125 279.995C73.21 282.726 73.0687 287.866 72.8466 293.342C72.7748 295.109 71.1578 296.514 69.2208 296.514ZM52.9486 279.161C52.3891 279.19 51.8758 279.429 51.539 279.817C51.2621 280.135 51.1295 280.529 51.1653 280.925L52.2332 292.776C52.3472 294.043 53.5369 295.024 54.9997 295.06L69.1503 295.405C70.5066 295.434 71.6869 294.493 71.7352 293.297C71.9535 287.907 72.0948 282.854 71.4348 280.269C71.1399 279.116 69.9373 278.277 68.576 278.273C68.552 278.273 68.5282 278.273 68.5049 278.273C65.9091 278.273 61.3166 278.595 57.6197 278.854C55.8361 278.979 54.1506 279.097 52.9486 279.161Z" fill="white"/>
<path opacity="0.6" d="M54.4286 280.39C57.4047 280.232 63.8763 279.674 66.9417 279.681C68.2406 279.684 69.3679 280.482 69.6557 281.609C70.2149 283.797 70.0718 288.14 69.9093 292.147C69.8607 293.347 68.7398 294.289 67.3887 294.256L56.0805 293.981C54.6898 293.947 53.5493 292.985 53.4381 291.753L52.5846 282.283C52.4962 281.303 53.3253 280.449 54.4286 280.39Z" fill="white"/>
<g opacity="0.6">
<path d="M81.2402 284.405C80.8788 284.399 80.6545 284.68 80.7414 285.029L82.1856 290.833C82.2727 291.182 82.6395 291.469 83.0008 291.471L214.711 292.044C215.073 292.046 215.366 291.752 215.364 291.392L215.336 287.439C215.333 287.079 215.035 286.779 214.674 286.773L81.2402 284.405Z" fill="white"/>
</g>
<path d="M140.549 4.51953C133.454 -0.55567 127.22 -0.549286 122.812 0.676016C118.792 1.79378 116.14 5.60603 116.46 9.75284L118.046 30.3615L140.534 32.6854C140.534 32.6854 154.463 14.4729 140.549 4.51953ZM130.399 20.9768C127.299 20.931 124.822 18.389 124.868 15.2991C124.914 12.2092 127.465 9.74154 130.566 9.78721C133.667 9.83304 136.144 12.375 136.098 15.4649C136.052 18.555 133.5 21.0226 130.399 20.9768Z" fill="url(#paint4_linear_1011_673)"/>
<path d="M120.461 21.7506C120.173 21.7506 119.929 21.5294 119.907 21.2389L119.654 17.9571C119.631 17.6519 119.86 17.3854 120.166 17.362C120.464 17.3379 120.74 17.5671 120.763 17.872L121.016 21.1538C121.039 21.459 120.81 21.7255 120.504 21.7489C120.49 21.7501 120.475 21.7506 120.461 21.7506ZM119.966 15.3193C119.678 15.3193 119.434 15.0981 119.412 14.8076L119.22 12.3156C118.916 8.35898 121.465 4.71712 125.283 3.65566C127.982 2.90519 130.756 2.83219 133.523 3.43993C133.824 3.50573 134.013 3.8015 133.947 4.10054C133.881 4.39926 133.584 4.58896 133.284 4.52234C130.695 3.95372 128.104 4.02149 125.582 4.72334C122.274 5.64256 120.065 8.79993 120.329 12.2305L120.521 14.7225C120.544 15.0278 120.315 15.2942 120.009 15.3176C119.994 15.3186 119.98 15.3193 119.966 15.3193Z" fill="#91B3FA"/>
<path d="M87.1445 43.2078L87.2985 32.8605C87.3517 29.2885 90.3653 26.4716 93.9462 26.6469L165.507 30.1492C168.682 30.3047 171.218 32.8417 171.362 36.0067L171.812 45.9579L87.1445 43.2078Z" fill="url(#paint5_linear_1011_673)"/>
<path d="M114.022 30.8552C114.02 30.8552 114.017 30.8552 114.014 30.8552L110.935 30.8097C110.627 30.8051 110.382 30.5533 110.387 30.2473C110.391 29.9412 110.651 29.6873 110.951 29.7012L114.03 29.7467C114.338 29.7513 114.583 30.0031 114.578 30.3091C114.574 30.6124 114.326 30.8552 114.022 30.8552Z" fill="#91B3FA"/>
<path d="M91.0719 40.0292H91.0637C90.7563 40.0246 90.5112 39.7729 90.5157 39.467L90.5776 35.2814C90.6259 32.0698 93.2635 29.4897 96.4758 29.4897C96.5052 29.4897 96.5344 29.4901 96.5643 29.4902L107.884 29.6575C108.192 29.6621 108.437 29.9138 108.432 30.2199C108.428 30.526 108.152 30.7576 107.868 30.766L96.5479 30.5987C96.5239 30.5982 96.4996 30.5982 96.4756 30.5982C93.869 30.5982 91.729 32.6916 91.6899 35.2979L91.6279 39.4832C91.6238 39.7865 91.3756 40.0292 91.0719 40.0292Z" fill="#91B3FA"/>
<path d="M64.7491 39.0886L189.95 40.9353C194.451 41.0017 198.252 44.2866 198.954 48.718L199.051 49.3296C199.82 54.1833 196.013 58.5561 191.082 58.4833L62.6341 56.5853C59.6831 56.5416 57.3681 54.0484 57.5534 51.1133L57.9149 45.389C58.1411 41.8085 61.149 39.0356 64.7491 39.0886Z" fill="#7D97F4"/>
<path d="M291.468 437.875C291.468 437.875 401.132 462.797 435.763 412.954C470.394 363.11 412.676 280.677 388.306 245.531C363.936 210.386 322.892 159.903 309.424 118.367C295.957 76.8311 278 37.2121 227.978 34.656C177.955 32.0999 154.227 53.1875 140.118 113.894C126.009 174.601 104.846 209.746 67.0083 245.531C29.1708 281.316 -11.2318 324.13 2.8771 370.14C16.986 416.149 62.519 437.875 113.183 437.236C163.847 436.597 291.468 437.875 291.468 437.875Z" fill="url(#paint6_linear_1011_673)"/>
<path d="M134.381 167.155C134.381 167.155 134.264 168.182 134.044 170.109C133.802 172.036 133.471 174.864 132.919 178.449C132.358 182.031 131.607 186.377 130.434 191.301C129.866 193.767 129.147 196.366 128.335 199.09C127.495 201.807 126.51 204.634 125.348 207.536C124.192 210.433 122.769 213.401 121.197 216.351C119.574 219.334 117.746 222.298 115.733 225.267C113.689 228.211 111.475 231.155 109.089 234.062C106.687 236.955 104.138 239.827 101.469 242.672C96.1118 248.345 90.2999 253.922 84.3598 259.515C78.4127 265.102 72.3683 270.754 66.6341 276.685C60.9064 282.615 55.5056 288.854 50.9142 295.495C48.6373 298.824 46.538 302.23 44.6956 305.724C42.8553 309.213 41.2497 312.78 39.8218 316.345C38.4155 319.921 37.17 323.494 36.0783 327.033C34.9941 330.578 34.0647 334.08 33.2412 337.525C32.4227 340.945 31.741 344.31 31.2836 347.577C30.836 350.845 30.5824 354.024 30.6031 357.069C30.5932 358.593 30.6938 360.08 30.8101 361.53C30.8943 362.245 30.9584 362.985 31.0653 363.656C31.1859 364.366 31.2761 365.093 31.4167 365.764C31.9267 368.448 32.6612 371.017 33.5508 373.322C34.4372 375.637 35.4508 377.733 36.4802 379.623C37.5411 381.495 38.6231 383.158 39.6893 384.597C41.8094 387.489 43.818 389.496 45.2166 390.816C45.9 391.498 46.4838 391.954 46.8532 392.289C47.2302 392.616 47.4247 392.785 47.4247 392.785L47.082 393.221C47.082 393.221 46.8755 393.062 46.4769 392.752C46.0841 392.434 45.466 392.003 44.735 391.351C43.2305 390.101 41.1116 388.129 38.8187 385.264C37.6672 383.836 36.4875 382.179 35.3174 380.298C34.1696 378.403 33.0562 376.273 32.0724 373.904C31.0811 371.529 30.2399 368.945 29.6244 366.087C29.4614 365.377 29.3609 364.682 29.2241 363.966C29.0872 363.208 29.0112 362.485 28.9057 361.728C28.7515 360.223 28.6151 358.678 28.5906 357.099C28.4136 350.771 29.408 343.981 31.0023 336.994C32.6313 330.041 34.7099 322.747 37.6262 315.474C39.0965 311.843 40.7456 308.212 42.645 304.642C44.5418 301.076 46.7035 297.595 49.0407 294.205C53.7511 287.444 59.2572 281.135 65.0588 275.169C76.6777 263.236 89.3888 252.552 100.12 241.398C102.796 238.606 105.349 235.792 107.753 232.958C110.142 230.112 112.356 227.231 114.402 224.351C116.415 221.45 118.254 218.536 119.863 215.656C121.461 212.711 122.896 209.87 124.092 207.019C125.287 204.179 126.31 201.403 127.189 198.73C128.04 196.049 128.798 193.487 129.405 191.049C130.657 186.184 131.475 181.872 132.104 178.315C132.739 174.758 133.136 171.945 133.422 170.031C133.688 168.11 133.829 167.085 133.829 167.085L134.381 167.155Z" fill="#91B3FA"/>
<path d="M118.109 349.428C128.787 345.161 141.131 340.991 179.63 329.582C193.99 326.763 204.512 314.464 205.031 299.889L207.352 234.669H249.804L252.125 299.889C252.644 314.464 263.166 326.763 277.526 329.582C308.827 340.991 336.029 349.197 356.994 364.347C348.28 376.355 228.729 367.396 194.597 367.396C163.214 367.396 128.051 357.519 118.109 349.428Z" fill="url(#paint7_linear_1011_673)"/>
<path d="M108.66 371.342C111.142 363.276 117.878 342.869 121.234 350.294C128.476 366.313 342.013 375.048 342.011 354.655C345.854 361.207 342.821 353.074 348.441 371.342C355.089 392.954 361.906 422.773 359.441 448.74H97.6603C95.1951 422.774 102.012 392.954 108.66 371.342Z" fill="url(#paint8_linear_1011_673)"/>
<path d="M160.953 147.761C160.953 194.17 190.527 250.963 227.008 250.963C263.489 250.963 293.063 194.17 293.063 147.761C293.063 101.353 263.49 82.9014 227.008 82.9014C190.527 82.9014 160.953 101.353 160.953 147.761Z" fill="url(#paint9_linear_1011_673)"/>
<path d="M169.626 170.127C169.626 170.127 160.007 152.873 151.028 161.18C142.05 169.488 164.496 198.882 172.833 195.048C181.17 191.214 169.626 170.127 169.626 170.127Z" fill="url(#paint10_linear_1011_673)"/>
<path d="M285.383 170.127C285.383 170.127 295.003 152.873 303.981 161.18C312.96 169.488 290.514 198.882 282.177 195.048C273.84 191.214 285.383 170.127 285.383 170.127Z" fill="url(#paint11_linear_1011_673)"/>
<path d="M295.326 156.708C295.326 156.708 285.065 134.342 260.695 132.425C241.196 130.891 208.559 123.221 193.335 112.36C188.21 108.704 181.06 110.06 177.759 115.41C170.911 126.505 161.949 143.62 160.971 158.5C160.971 158.5 145.9 119.006 167.064 85.1378C188.227 51.2701 317.772 34.6557 295.326 156.708Z" fill="url(#paint12_linear_1011_673)"/>
<path d="M318.833 177.465C318.833 177.465 319.28 178.492 320.119 180.417C320.328 180.898 320.562 181.436 320.82 182.027C321.078 182.618 321.35 183.27 321.694 183.945C322.358 185.308 323.122 186.875 323.977 188.63C324.896 190.354 325.913 192.264 327.021 194.343C327.612 195.362 328.227 196.422 328.865 197.522C329.504 198.622 330.151 199.769 330.889 200.914C331.61 202.069 332.354 203.26 333.12 204.486C333.896 205.707 334.74 206.934 335.581 208.208C336.004 208.843 336.433 209.487 336.867 210.138C337.317 210.779 337.774 211.427 338.236 212.083C339.168 213.389 340.083 214.75 341.088 216.093C342.083 217.442 343.099 218.819 344.134 220.223C345.195 221.608 346.274 223.02 347.373 224.455C349.586 227.316 351.895 230.257 354.318 233.246C359.147 239.234 364.361 245.459 369.736 251.927C375.111 258.398 380.636 265.113 386 272.17C391.355 279.222 396.523 286.614 401.225 294.316C405.91 302.02 410.156 310.035 413.462 318.318C416.787 326.585 419.238 335.079 420.6 343.485C420.754 344.538 420.908 345.587 421.06 346.631C421.137 347.154 421.213 347.675 421.289 348.194C421.345 348.716 421.4 349.236 421.455 349.755C421.571 350.769 421.641 351.83 421.724 352.867C421.797 353.906 421.846 354.932 421.894 355.957C422.049 360.055 421.93 364.071 421.618 367.962C420.987 375.75 419.415 383.002 417.376 389.5C416.337 392.754 415.092 395.824 413.588 398.601C412.829 399.998 412.04 401.282 411.124 402.54C410.673 403.119 410.277 403.683 409.791 404.246C409.306 404.798 408.851 405.379 408.356 405.872C404.493 409.973 400.402 412.66 397.012 414.684C395.311 415.701 393.754 416.531 392.397 417.242C391.042 417.957 389.875 418.534 388.927 418.995C387.03 419.913 386.018 420.403 386.018 420.403L385.757 419.914C385.757 419.914 386.726 419.347 388.542 418.285C390.342 417.202 393.024 415.674 396.253 413.495C397.874 412.415 399.623 411.158 401.416 409.674C403.21 408.195 405.061 406.494 406.792 404.479C407.248 403.987 407.624 403.453 408.049 402.931C408.468 402.412 408.866 401.783 409.29 401.205C410.048 400.092 410.792 398.809 411.452 397.492C412.794 394.841 413.869 391.878 414.809 388.715C416.68 382.366 418.034 375.281 418.638 367.726C419.188 360.164 419.003 352.134 417.623 343.964C416.317 335.793 413.952 327.511 410.716 319.413C407.483 311.309 403.393 303.392 398.813 295.763C394.233 288.128 389.141 280.793 383.905 273.731C378.68 266.667 373.253 259.892 367.971 253.363C357.396 240.31 347.43 228.129 339.776 217.019C338.796 215.648 337.902 214.258 336.994 212.926C336.544 212.257 336.099 211.596 335.659 210.942C335.237 210.277 334.819 209.621 334.406 208.973C333.588 207.672 332.766 206.421 332.011 205.177C331.267 203.927 330.544 202.713 329.843 201.536C329.127 200.369 328.499 199.2 327.879 198.081C327.261 196.961 326.666 195.881 326.093 194.844C325.023 192.729 324.029 190.793 323.163 189.028C322.351 187.236 321.627 185.635 320.997 184.242C320.67 183.551 320.417 182.894 320.176 182.295C319.935 181.697 319.717 181.153 319.521 180.666C318.738 178.718 318.32 177.679 318.32 177.679L318.833 177.465Z" fill="#91B3FA"/>
<path d="M335.192 223.817C335.192 223.817 335.5 224.578 336.077 226.006C336.221 226.363 336.382 226.761 336.559 227.2C336.749 227.631 336.957 228.102 337.181 228.61C337.63 229.627 338.141 230.795 338.772 232.083C339.97 234.684 341.589 237.766 343.545 241.241C345.508 244.713 347.887 248.538 350.627 252.615C353.35 256.704 356.427 261.052 359.793 265.575C363.154 270.102 366.787 274.816 370.534 279.714C374.287 284.607 378.111 289.718 381.843 295.034C383.692 297.704 385.55 300.403 387.316 303.183C388.22 304.558 389.069 305.975 389.942 307.378C390.78 308.802 391.635 310.219 392.436 311.668C394.07 314.548 395.581 317.501 397.011 320.479C397.37 321.222 397.697 321.981 398.041 322.731L398.55 323.857L398.677 324.138L398.805 324.441L399.038 325.005C399.348 325.758 399.658 326.509 399.968 327.259C400.28 328.005 400.55 328.798 400.842 329.563C403.154 335.711 404.742 341.977 405.673 348.156C405.941 349.695 406.07 351.241 406.244 352.765C406.343 353.526 406.355 354.292 406.407 355.05C406.448 355.809 406.489 356.564 406.53 357.315C406.579 360.324 406.544 363.274 406.251 366.13C405.728 371.845 404.448 377.17 402.703 381.863C402.598 382.158 402.492 382.451 402.388 382.742C402.273 383.078 402.151 383.317 402.034 383.606C401.789 384.162 401.584 384.705 401.306 385.257C401.04 385.802 400.792 386.353 400.518 386.874C400.24 387.391 399.965 387.902 399.693 388.407C398.553 390.395 397.326 392.197 396.048 393.793C394.755 395.379 393.405 396.746 392.083 397.923C390.731 399.069 389.422 400.046 388.149 400.785C385.62 402.294 383.4 403.033 381.871 403.377C381.495 403.491 381.149 403.533 380.854 403.584C380.559 403.633 380.311 403.675 380.112 403.708C379.713 403.774 379.507 403.808 379.507 403.808L379.426 403.26C379.426 403.26 379.624 403.214 380.008 403.126C380.199 403.082 380.437 403.028 380.72 402.963C381.002 402.896 381.332 402.837 381.689 402.703C382.049 402.584 382.451 402.451 382.894 402.304C383.337 402.163 383.792 401.926 384.297 401.717C384.81 401.521 385.325 401.231 385.879 400.935C386.443 400.658 387.001 400.289 387.591 399.904C388.777 399.143 389.988 398.149 391.231 396.996C392.446 395.81 393.679 394.445 394.848 392.869C396.003 391.283 397.139 389.527 398.166 387.58C398.411 387.087 398.659 386.589 398.91 386.084C399.155 385.577 399.368 385.057 399.603 384.536C399.842 384.027 400.042 383.446 400.265 382.891C400.365 382.619 400.503 382.308 400.574 382.063C400.668 381.779 400.763 381.493 400.858 381.206C402.451 376.633 403.522 371.463 403.956 365.936C404.2 363.174 404.192 360.318 404.104 357.407C403.926 354.498 403.682 351.526 403.193 348.532C403.072 347.783 402.951 347.032 402.83 346.277C402.677 345.528 402.524 344.775 402.371 344.021C402.094 342.504 401.664 341.008 401.307 339.488C400.477 336.481 399.566 333.431 398.45 330.461C398.168 329.716 397.921 328.972 397.609 328.221C397.302 327.47 396.994 326.718 396.685 325.965L396.455 325.4L396.345 325.14L396.221 324.864L395.726 323.759C395.391 323.024 395.074 322.28 394.724 321.55C393.329 318.626 391.855 315.722 390.254 312.882C387.079 307.189 383.547 301.683 379.906 296.368C376.244 291.065 372.48 285.944 368.831 280.983C365.173 276.028 361.612 271.244 358.316 266.643C355.017 262.045 351.989 257.624 349.328 253.456C346.683 249.276 344.395 245.357 342.515 241.804C340.64 238.249 339.098 235.101 337.963 232.448C337.367 231.136 336.902 229.931 336.486 228.889C336.279 228.369 336.087 227.887 335.911 227.445C335.751 227 335.605 226.596 335.474 226.234C334.951 224.786 334.672 224.014 334.672 224.014L335.192 223.817Z" fill="#91B3FA"/>
<path d="M182.01 68.2407C182.01 68.2407 181.967 68.3782 181.883 68.6445C181.808 68.9102 181.653 69.3076 181.546 69.8192C181.283 70.8318 180.989 72.3862 180.996 74.3659C180.985 75.3562 181.073 76.4515 181.236 77.6333C181.427 78.8116 181.714 80.0732 182.141 81.385C182.977 84.005 184.453 86.8214 186.555 89.4764C188.649 92.1572 191.383 94.6949 194.57 96.9752C196.17 98.1045 197.865 99.2101 199.673 100.195C200.583 100.701 201.497 101.242 202.439 101.69C203.383 102.151 204.308 102.659 205.299 103.08C209.202 104.873 213.372 106.435 217.688 107.793C222.004 109.152 226.464 110.317 230.946 111.41C235.444 112.483 239.941 113.556 244.369 114.612C246.586 115.15 248.773 115.711 250.938 116.32C253.079 116.913 255.214 117.561 257.287 118.239C261.428 119.598 265.376 121.108 269.004 122.804C272.637 124.493 275.934 126.379 278.858 128.298C279.576 128.798 280.278 129.288 280.965 129.767C281.656 130.24 282.277 130.777 282.911 131.259C283.54 131.749 284.155 132.223 284.709 132.74C285.271 133.243 285.818 133.732 286.348 134.206C286.867 134.69 287.33 135.202 287.799 135.672C288.253 136.156 288.725 136.589 289.117 137.064C289.901 138.011 290.659 138.848 291.272 139.661C291.869 140.487 292.401 141.223 292.865 141.864C293.309 142.517 293.63 143.111 293.918 143.572C294.48 144.505 294.779 145.002 294.779 145.002L294.297 145.279C294.297 145.279 293.979 144.803 293.383 143.909C293.077 143.468 292.736 142.9 292.27 142.278C291.793 141.665 291.245 140.959 290.63 140.169C290.002 139.393 289.227 138.596 288.429 137.695C288.031 137.244 287.551 136.834 287.09 136.376C286.615 135.932 286.146 135.448 285.621 134.991C283.521 133.164 281.054 131.208 278.155 129.369C275.253 127.538 271.964 125.789 268.38 124.158C264.8 122.515 260.898 121.052 256.797 119.738C254.746 119.084 252.66 118.465 250.498 117.883C248.363 117.304 246.174 116.752 243.974 116.199C239.552 115.123 235.06 114.031 230.567 112.939C226.073 111.822 221.585 110.629 217.226 109.236C212.869 107.844 208.637 106.25 204.696 104.358C203.699 103.918 202.744 103.38 201.783 102.894C200.81 102.412 199.916 101.867 199.011 101.348C197.172 100.313 195.46 99.1639 193.833 97.9837C190.599 95.6031 187.811 92.9525 185.681 90.1457C183.548 87.3231 182.103 84.4021 181.286 81.6532C180.873 80.2841 180.604 78.9707 180.434 77.7461C180.291 76.5175 180.225 75.3814 180.258 74.3553C180.307 72.2983 180.658 70.7173 180.965 69.6526C181.099 69.1099 181.258 68.7367 181.343 68.4679C181.434 68.2041 181.481 68.0679 181.481 68.0679L182.01 68.2407Z" fill="#91B3FA"/>
<path d="M190.901 71.1244C190.901 71.1244 190.887 71.264 190.859 71.5346C190.846 71.6699 190.829 71.8379 190.808 72.0376C190.801 72.2322 190.793 72.4576 190.783 72.7129C190.765 73.7328 190.83 75.2639 191.338 77.119C191.822 78.974 192.763 81.1538 194.322 83.3321C194.516 83.6043 194.728 83.8704 194.935 84.1462C195.154 84.4086 195.377 84.6749 195.602 84.9451C196.096 85.4967 196.584 86.0185 197.132 86.533C198.223 87.5691 199.451 88.5768 200.815 89.52C203.541 91.4196 206.763 93.0662 210.317 94.56C213.837 96.039 217.686 97.3555 221.717 98.5094C225.748 99.68 229.978 100.686 234.301 101.632C238.639 102.558 243.046 103.5 247.453 104.441C251.87 105.399 256.259 106.524 260.534 107.821C262.67 108.472 264.77 109.19 266.828 109.949C268.874 110.74 270.89 111.541 272.817 112.462C276.701 114.245 280.271 116.361 283.422 118.708C286.579 121.05 289.263 123.635 291.496 126.224C293.732 128.814 295.476 131.442 296.766 133.9C297.073 134.522 297.411 135.104 297.663 135.702C297.922 136.296 298.172 136.868 298.412 137.419C298.627 137.979 298.814 138.524 299.002 139.04C299.093 139.3 299.19 139.55 299.269 139.799C299.341 140.051 299.411 140.297 299.479 140.536C299.615 141.015 299.743 141.467 299.864 141.893C299.969 142.323 300.039 142.733 300.12 143.11C300.196 143.488 300.266 143.838 300.331 144.159C300.393 144.479 300.415 144.777 300.453 145.04C300.586 146.094 300.657 146.656 300.657 146.656L300.104 146.717C300.104 146.717 300.009 146.169 299.832 145.141C299.782 144.885 299.749 144.596 299.673 144.284C299.595 143.974 299.51 143.635 299.419 143.268C299.324 142.903 299.234 142.507 299.12 142.091C298.987 141.679 298.846 141.242 298.698 140.779C298.624 140.548 298.548 140.311 298.47 140.068C298.385 139.827 298.281 139.586 298.184 139.336C297.982 138.839 297.783 138.315 297.555 137.777C297.303 137.249 297.041 136.7 296.769 136.13C296.505 135.557 296.155 135.001 295.837 134.406C294.489 132.067 292.73 129.56 290.514 127.08C288.292 124.61 285.624 122.146 282.519 119.941C281.735 119.405 280.976 118.843 280.116 118.325C279.701 118.065 279.283 117.803 278.863 117.54C278.434 117.293 278.002 117.044 277.568 116.793C276.711 116.273 275.796 115.83 274.9 115.336C273.976 114.893 273.063 114.407 272.106 113.99C270.216 113.102 268.234 112.331 266.221 111.569C264.196 110.837 262.127 110.146 260.016 109.518C255.797 108.255 251.432 107.218 247.055 106.212C242.654 105.244 238.254 104.276 233.922 103.322C229.586 102.346 225.324 101.305 221.249 100.095C217.164 98.9029 213.311 97.4632 209.717 95.8872C206.168 94.3174 202.866 92.5588 200.085 90.5412C198.69 89.5386 197.426 88.468 196.327 87.3461C195.77 86.7906 195.252 86.2007 194.791 85.6527C194.559 85.3573 194.33 85.0663 194.105 84.7793C193.896 84.4834 193.683 84.1978 193.488 83.9063C191.925 81.575 191.013 79.2679 190.565 77.3113C190.088 75.3522 190.104 73.7537 190.161 72.6802C190.183 72.4101 190.202 72.1716 190.218 71.9657C190.247 71.767 190.271 71.5999 190.29 71.4653C190.329 71.1961 190.349 71.0571 190.349 71.0571L190.901 71.1244Z" fill="#91B3FA"/>
<path opacity="0.6" d="M64.9251 402.667C63.2809 400.954 61.2141 399.667 58.9492 398.943L59.1187 398.416C61.4717 399.167 63.6188 400.505 65.3272 402.284L64.9251 402.667Z" fill="white"/>
<path d="M411.869 277.575H335.812V297.528H411.869V277.575Z" fill="#7D97F4"/>
<path d="M434.958 456.959H312.721C309.441 456.959 306.781 454.309 306.781 451.04V294.721C306.781 291.452 309.441 288.802 312.721 288.802H434.958C438.238 288.802 440.898 291.452 440.898 294.721V451.04C440.898 454.309 438.238 456.959 434.958 456.959Z" fill="#91B3FA"/>
<path opacity="0.28" d="M421.952 430.709H325.729C324.64 430.709 323.758 429.83 323.758 428.745V325.732C323.758 324.647 324.64 323.768 325.729 323.768H421.952C423.041 323.768 423.923 324.647 423.923 325.732V428.745C423.923 429.83 423.041 430.709 421.952 430.709Z" fill="white"/>
<path d="M423.423 283.989H324.275C323.7 283.989 323.234 283.524 323.234 282.952V254.595C323.234 253.513 324.115 252.635 325.202 252.635H422.497C423.583 252.635 424.464 253.513 424.464 254.595V282.952C424.464 283.524 423.998 283.989 423.423 283.989Z" fill="url(#paint13_linear_1011_673)"/>
<path opacity="0.6" d="M334.537 257.109H330.902V279.87H334.537V257.109Z" fill="white"/>
<path opacity="0.6" d="M341.994 257.109H338.359V279.87H341.994V257.109Z" fill="white"/>
<path opacity="0.6" d="M349.49 257.109H345.855V279.87H349.49V257.109Z" fill="white"/>
<path opacity="0.6" d="M356.947 257.109H353.312V279.87H356.947V257.109Z" fill="white"/>
<path opacity="0.6" d="M364.455 257.109H360.82V279.87H364.455V257.109Z" fill="white"/>
<path opacity="0.6" d="M371.897 257.109H368.262V279.87H371.897V257.109Z" fill="white"/>
<path opacity="0.6" d="M379.412 257.109H375.777V279.87H379.412V257.109Z" fill="white"/>
<path opacity="0.6" d="M386.854 257.109H383.219V279.87H386.854V257.109Z" fill="white"/>
<path opacity="0.6" d="M394.354 257.109H390.719V279.87H394.354V257.109Z" fill="white"/>
<path opacity="0.6" d="M401.811 257.109H398.176V279.87H401.811V257.109Z" fill="white"/>
<path opacity="0.6" d="M409.311 257.109H405.676V279.87H409.311V257.109Z" fill="white"/>
<path opacity="0.6" d="M416.768 257.109H413.133V279.87H416.768V257.109Z" fill="white"/>
<path d="M89.8873 436.009C85.2686 435.407 80.201 435.075 74.8841 435.075C69.5673 435.075 64.4998 435.407 59.8811 436.009H35.8789V447.248C35.8789 453.97 53.3421 459.42 74.8841 459.42C96.4261 459.42 113.89 453.97 113.89 447.248V436.009H89.8873Z" fill="#7D97F4"/>
<path d="M74.8841 448.182C96.4261 448.182 113.889 442.732 113.889 436.009C113.889 429.286 96.4261 423.836 74.8841 423.836C53.3421 423.836 35.8789 429.286 35.8789 436.009C35.8789 442.732 53.3421 448.182 74.8841 448.182Z" fill="#BDD0FB"/>
<path opacity="0.3" d="M74.8561 444.857C64.7667 444.857 55.3258 443.645 48.2725 441.444C40.8565 439.129 39.1875 436.683 39.1875 436.009C39.1875 435.334 40.8565 432.888 48.2725 430.574C55.3258 428.373 64.7667 427.161 74.8561 427.161C84.9456 427.161 94.3865 428.373 101.44 430.574C108.856 432.888 110.525 435.334 110.525 436.009C110.525 436.683 108.856 439.129 101.44 441.444C94.3865 443.645 84.9456 444.857 74.8561 444.857Z" fill="#D8DEE8"/>
<path opacity="0.3" d="M74.8561 444.855C64.7667 444.855 55.3258 443.554 48.2725 441.192C40.8565 438.707 39.1875 436.082 39.1875 435.358C39.1875 434.634 40.8565 432.008 48.2725 429.524C55.3258 427.162 64.7667 425.86 74.8561 425.86C84.9456 425.86 94.3865 427.162 101.44 429.524C108.856 432.008 110.525 434.634 110.525 435.358C110.525 436.082 108.856 438.707 101.44 441.192C94.3865 443.554 84.9456 444.855 74.8561 444.855Z" fill="#D8DEE8"/>
<path d="M53.3477 440.082C52.3994 440.082 51.5572 439.515 51.3806 438.706C51.1819 437.794 51.9025 436.92 52.9901 436.754L93.614 430.532C94.7003 430.365 95.7446 430.97 95.9433 431.881C96.1421 432.792 95.4214 433.666 94.3338 433.833L53.7099 440.054C53.5882 440.073 53.467 440.082 53.3477 440.082Z" fill="#D8DEE8"/>
<path d="M86.8326 421.607C82.2139 421.006 77.1464 420.673 71.8294 420.673C66.5126 420.673 61.4451 421.006 56.8264 421.607H32.8242V432.846C32.8242 439.569 50.2875 445.019 71.8294 445.019C93.3714 445.019 110.835 439.569 110.835 432.846V421.607H86.8326Z" fill="#7D97F4"/>
<path d="M71.8294 433.781C93.3714 433.781 110.835 428.331 110.835 421.608C110.835 414.885 93.3714 409.435 71.8294 409.435C50.2874 409.435 32.8242 414.885 32.8242 421.608C32.8242 428.331 50.2874 433.781 71.8294 433.781Z" fill="#BDD0FB"/>
<path opacity="0.3" d="M71.8014 430.456C61.712 430.456 52.2711 429.244 45.2178 427.043C37.8018 424.728 36.1328 422.282 36.1328 421.608C36.1328 420.934 37.8018 418.487 45.2178 416.173C52.2711 413.972 61.712 412.76 71.8014 412.76C81.8909 412.76 91.3318 413.972 98.3851 416.173C105.801 418.488 107.47 420.934 107.47 421.608C107.47 422.282 105.801 424.728 98.3851 427.043C91.3318 429.244 81.8909 430.456 71.8014 430.456Z" fill="#D8DEE8"/>
<path opacity="0.3" d="M71.8014 430.455C61.712 430.455 52.2711 429.154 45.2178 426.791C37.8018 424.307 36.1328 421.682 36.1328 420.958C36.1328 420.234 37.8018 417.608 45.2178 415.124C52.2711 412.762 61.712 411.46 71.8014 411.46C81.8909 411.46 91.3318 412.762 98.3851 415.124C105.801 417.608 107.47 420.234 107.47 420.958C107.47 421.682 105.801 424.307 98.3851 426.791C91.3318 429.154 81.8909 430.455 71.8014 430.455Z" fill="#D8DEE8"/>
<path d="M50.293 425.681C49.3449 425.681 48.5025 425.114 48.3259 424.304C48.1272 423.393 48.8478 422.519 49.9354 422.352L90.5593 416.131C91.6456 415.964 92.6899 416.568 92.8886 417.479C93.0874 418.391 92.3668 419.265 91.2792 419.431L50.6552 425.653C50.5337 425.671 50.4125 425.681 50.293 425.681Z" fill="#D8DEE8"/>
<path d="M89.8873 409.916C85.2686 409.315 80.201 408.982 74.8841 408.982C69.5673 408.982 64.4998 409.315 59.8811 409.916H35.8789V421.155C35.8789 427.878 53.3421 433.328 74.8841 433.328C96.4261 433.328 113.89 427.878 113.89 421.155V409.916H89.8873Z" fill="#7D97F4"/>
<path d="M74.8841 422.09C96.4261 422.09 113.889 416.64 113.889 409.917C113.889 403.194 96.4261 397.744 74.8841 397.744C53.3421 397.744 35.8789 403.194 35.8789 409.917C35.8789 416.64 53.3421 422.09 74.8841 422.09Z" fill="#BDD0FB"/>
<path opacity="0.3" d="M74.8561 418.765C64.7667 418.765 55.3258 417.553 48.2725 415.352C40.8565 413.038 39.1875 410.591 39.1875 409.917C39.1875 409.243 40.8565 406.796 48.2725 404.482C55.3258 402.281 64.7667 401.069 74.8561 401.069C84.9456 401.069 94.3865 402.281 101.44 404.482C108.856 406.797 110.525 409.243 110.525 409.917C110.525 410.591 108.856 413.038 101.44 415.352C94.3865 417.553 84.9456 418.765 74.8561 418.765Z" fill="#D8DEE8"/>
<path opacity="0.3" d="M74.8561 418.763C64.7667 418.763 55.3258 417.462 48.2725 415.099C40.8565 412.615 39.1875 409.989 39.1875 409.266C39.1875 408.542 40.8565 405.916 48.2725 403.432C55.3258 401.069 64.7667 399.768 74.8561 399.768C84.9456 399.768 94.3865 401.069 101.44 403.432C108.856 405.916 110.525 408.542 110.525 409.266C110.525 409.989 108.856 412.615 101.44 415.099C94.3865 417.462 84.9456 418.763 74.8561 418.763Z" fill="#D8DEE8"/>
<path d="M53.3477 413.99C52.3994 413.99 51.5572 413.423 51.3806 412.614C51.1819 411.702 51.9025 410.828 52.9901 410.662L93.614 404.44C94.7003 404.273 95.7446 404.878 95.9433 405.789C96.1421 406.701 95.4214 407.575 94.3338 407.741L53.7099 413.962C53.5882 413.981 53.467 413.99 53.3477 413.99Z" fill="#D8DEE8"/>
<path d="M86.8324 394.913C82.2137 394.312 77.1461 393.979 71.8293 393.979C66.5124 393.979 61.445 394.312 56.8263 394.913H32.8242V406.152C32.8242 412.875 50.2874 418.325 71.8294 418.325C93.3714 418.325 110.835 412.875 110.835 406.152V394.913H86.8324Z" fill="#7D97F4"/>
<path d="M71.8294 407.087C93.3714 407.087 110.835 401.637 110.835 394.914C110.835 388.191 93.3714 382.741 71.8294 382.741C50.2874 382.741 32.8242 388.191 32.8242 394.914C32.8242 401.637 50.2874 407.087 71.8294 407.087Z" fill="#BDD0FB"/>
<path d="M50.293 398.987C49.3447 398.987 48.5025 398.42 48.3259 397.61C48.1272 396.699 48.8478 395.825 49.9354 395.658L90.5593 389.437C91.6456 389.27 92.6899 389.874 92.8886 390.786C93.0874 391.697 92.3668 392.571 91.2792 392.738L50.6552 398.959C50.5337 398.977 50.4125 398.987 50.293 398.987Z" fill="#7D97F4"/>
<path d="M158.157 412.251L125.91 415.972C132.6 428.399 135.49 442.181 135.247 456.227L162.897 453.036C174.153 451.738 182.296 441.498 180.993 430.282C179.689 419.066 169.413 410.953 158.157 412.251Z" fill="white"/>
<path d="M125.932 415.973L99.0141 419.079C87.7581 420.377 79.6148 430.617 80.9183 441.833C82.2218 453.049 92.498 461.162 103.754 459.864L135.269 456.227C135.512 442.181 132.622 428.4 125.932 415.973Z" fill="url(#paint14_linear_1011_673)"/>
<path d="M428.945 216.783H427.523V116.946L428.945 109.866V216.783Z" fill="url(#paint15_linear_1011_673)"/>
<path d="M435.314 226.695H421.102L422.02 203.81C422.102 201.761 423.793 200.143 425.85 200.143H430.565C432.622 200.143 434.313 201.761 434.395 203.81L435.314 226.695Z" fill="url(#paint16_linear_1011_673)"/>
<path d="M451.853 411.854H404.598V229.454C404.598 227.149 406.473 225.28 408.786 225.28H447.664C449.977 225.28 451.853 227.149 451.853 229.454V411.854Z" fill="url(#paint17_linear_1011_673)"/>
<path d="M408.117 413.27V231.357C408.117 229.956 409.257 228.82 410.663 228.82H445.72C447.126 228.82 448.266 229.956 448.266 231.357V413.27L408.117 413.27Z" fill="url(#paint18_linear_1011_673)"/>
<path opacity="0.44" d="M408.219 412.352V230.439C408.219 229.038 409.359 227.902 410.765 227.902H445.822C447.228 227.902 448.368 229.038 448.368 230.439V412.352H408.219Z" fill="white"/>
<path d="M408.117 304.395V231.357C408.117 229.956 409.257 228.82 410.663 228.82H445.72C447.126 228.82 448.266 229.956 448.266 231.357V304.395H408.117Z" fill="url(#paint19_linear_1011_673)"/>
<path d="M430.876 305.644H425.547V455.752H430.876V305.644Z" fill="url(#paint20_linear_1011_673)"/>
<path d="M448.399 300.688H408.117V306.353H448.399V300.688Z" fill="url(#paint21_linear_1011_673)"/>
<path d="M456.975 416.809H399.417C397.847 416.809 396.574 415.541 396.574 413.976C396.574 412.412 397.847 411.144 399.417 411.144H456.975C458.545 411.144 459.818 412.412 459.818 413.976C459.818 415.541 458.545 416.809 456.975 416.809Z" fill="url(#paint22_linear_1011_673)"/>
<path d="M457.008 458.466L399.417 458.586C397.847 458.586 396.574 457.318 396.574 455.754C396.574 454.189 397.847 452.921 399.417 452.921H456.976C458.545 452.921 459.818 454.189 459.818 455.754C459.818 457.318 458.578 458.466 457.008 458.466Z" fill="url(#paint23_linear_1011_673)"/>
<path d="M205.45 212.71C205.408 211.136 206.655 209.827 208.234 209.785C209.813 209.743 211.127 210.985 211.169 212.559C211.211 214.132 209.965 215.441 208.386 215.483C206.806 215.525 205.492 214.283 205.45 212.71Z" fill="url(#paint24_linear_1011_673)"/>
<path d="M256.096 233.081C257.772 233.081 259.13 231.727 259.13 230.058C259.13 228.389 257.772 227.035 256.096 227.035C254.421 227.035 253.062 228.389 253.062 230.058C253.062 231.727 254.421 233.081 256.096 233.081Z" fill="url(#paint25_linear_1011_673)"/>
<path d="M260.799 219.805C262.475 219.805 263.833 218.452 263.833 216.783C263.833 215.113 262.475 213.76 260.799 213.76C259.124 213.76 257.766 215.113 257.766 216.783C257.766 218.452 259.124 219.805 260.799 219.805Z" fill="url(#paint26_linear_1011_673)"/>
<path d="M252.497 200.951C252.445 198.987 254.001 197.352 255.972 197.3C257.943 197.248 259.584 198.798 259.636 200.762C259.688 202.726 258.133 204.361 256.162 204.413C254.19 204.465 252.55 202.915 252.497 200.951Z" fill="url(#paint27_linear_1011_673)"/>
<path d="M271.544 197.596C271.502 196.023 272.748 194.713 274.327 194.671C275.906 194.63 277.221 195.871 277.263 197.445C277.305 199.018 276.058 200.328 274.479 200.37C272.9 200.412 271.586 199.17 271.544 197.596Z" fill="url(#paint28_linear_1011_673)"/>
<path d="M231.743 234.375C231.701 232.801 232.947 231.492 234.527 231.45C236.106 231.408 237.42 232.65 237.462 234.223C237.504 235.797 236.258 237.106 234.679 237.148C233.099 237.19 231.785 235.948 231.743 234.375Z" fill="url(#paint29_linear_1011_673)"/>
<path d="M268.715 207.565C269.701 207.565 270.5 206.769 270.5 205.786C270.5 204.804 269.701 204.007 268.715 204.007C267.729 204.007 266.93 204.804 266.93 205.786C266.93 206.769 267.729 207.565 268.715 207.565Z" fill="url(#paint30_linear_1011_673)"/>
<path d="M234.946 244.146C234.92 243.164 235.697 242.347 236.683 242.32C237.669 242.294 238.489 243.069 238.515 244.051C238.541 245.033 237.764 245.851 236.778 245.877C235.792 245.903 234.972 245.128 234.946 244.146Z" fill="url(#paint31_linear_1011_673)"/>
<path d="M249.414 219.72C250.4 219.72 251.199 218.923 251.199 217.941C251.199 216.959 250.4 216.162 249.414 216.162C248.428 216.162 247.629 216.959 247.629 217.941C247.629 218.923 248.428 219.72 249.414 219.72Z" fill="url(#paint32_linear_1011_673)"/>
<path d="M274.406 148.463C275.392 148.463 276.192 147.667 276.192 146.684C276.192 145.702 275.392 144.905 274.406 144.905C273.42 144.905 272.621 145.702 272.621 146.684C272.621 147.667 273.42 148.463 274.406 148.463Z" fill="url(#paint33_linear_1011_673)"/>
<path d="M270.738 179.35C271.724 179.35 272.524 178.553 272.524 177.571C272.524 176.588 271.724 175.792 270.738 175.792C269.752 175.792 268.953 176.588 268.953 177.571C268.953 178.553 269.752 179.35 270.738 179.35Z" fill="url(#paint34_linear_1011_673)"/>
<path d="M276.215 187.323C277.201 187.323 278 186.527 278 185.544C278 184.562 277.201 183.766 276.215 183.766C275.229 183.766 274.43 184.562 274.43 185.544C274.43 186.527 275.229 187.323 276.215 187.323Z" fill="url(#paint35_linear_1011_673)"/>
<path d="M225.274 244.404C225.248 243.422 226.026 242.604 227.011 242.578C227.997 242.552 228.817 243.327 228.843 244.309C228.87 245.291 228.092 246.109 227.106 246.135C226.12 246.161 225.3 245.386 225.274 244.404Z" fill="url(#paint36_linear_1011_673)"/>
<path d="M221.801 230.105C221.775 229.123 222.553 228.306 223.539 228.28C224.524 228.254 225.344 229.029 225.371 230.011C225.397 230.993 224.619 231.81 223.633 231.836C222.648 231.863 221.828 231.088 221.801 230.105Z" fill="url(#paint37_linear_1011_673)"/>
<path d="M283.747 170.734C283.721 169.752 284.498 168.935 285.484 168.909C286.47 168.883 287.29 169.658 287.316 170.64C287.342 171.622 286.565 172.439 285.579 172.465C284.593 172.491 283.773 171.717 283.747 170.734Z" fill="url(#paint38_linear_1011_673)"/>
<path d="M251.778 136.065C251.752 135.083 252.529 134.266 253.515 134.24C254.501 134.214 255.321 134.989 255.347 135.971C255.373 136.953 254.596 137.77 253.61 137.796C252.624 137.823 251.804 137.048 251.778 136.065Z" fill="url(#paint39_linear_1011_673)"/>
<path d="M208.012 228.474C208.998 228.474 209.797 227.677 209.797 226.695C209.797 225.712 208.998 224.916 208.012 224.916C207.026 224.916 206.227 225.712 206.227 226.695C206.227 227.677 207.026 228.474 208.012 228.474Z" fill="url(#paint40_linear_1011_673)"/>
<path d="M266.377 191.988C265.641 193.381 263.912 193.916 262.514 193.184C261.115 192.451 260.578 190.727 261.314 189.334C262.05 187.941 263.779 187.406 265.177 188.139C266.575 188.872 267.112 190.595 266.377 191.988Z" fill="url(#paint41_linear_1011_673)"/>
<path d="M181.567 170.611C181.525 169.037 180.211 167.796 178.632 167.837C177.053 167.879 175.807 169.189 175.849 170.762C175.891 172.336 177.205 173.577 178.784 173.536C180.363 173.494 181.609 172.184 181.567 170.611Z" fill="url(#paint42_linear_1011_673)"/>
<path d="M193.5 180.831C193.455 179.163 192.062 177.846 190.387 177.89C188.712 177.934 187.39 179.323 187.435 180.992C187.479 182.661 188.873 183.978 190.548 183.933C192.223 183.889 193.544 182.5 193.5 180.831Z" fill="url(#paint43_linear_1011_673)"/>
<path d="M198.976 210.244C198.923 208.279 197.283 206.729 195.312 206.782C193.34 206.834 191.785 208.468 191.837 210.433C191.89 212.397 193.53 213.947 195.501 213.895C197.473 213.842 199.028 212.208 198.976 210.244Z" fill="url(#paint44_linear_1011_673)"/>
<path d="M189.173 199.776C189.131 198.203 187.817 196.961 186.237 197.003C184.658 197.045 183.412 198.354 183.454 199.928C183.496 201.501 184.81 202.743 186.389 202.701C187.969 202.659 189.215 201.35 189.173 199.776Z" fill="url(#paint45_linear_1011_673)"/>
<path d="M186.304 212.588C186.278 211.606 185.458 210.831 184.472 210.857C183.487 210.883 182.709 211.7 182.735 212.682C182.761 213.664 183.581 214.439 184.567 214.413C185.553 214.387 186.33 213.57 186.304 212.588Z" fill="url(#paint46_linear_1011_673)"/>
<path d="M237.019 138.364C236.993 137.382 236.173 136.607 235.187 136.633C234.202 136.659 233.424 137.476 233.45 138.458C233.476 139.441 234.296 140.216 235.282 140.19C236.268 140.164 237.045 139.346 237.019 138.364Z" fill="url(#paint47_linear_1011_673)"/>
<path d="M196.394 222.932C196.368 221.95 195.548 221.175 194.562 221.201C193.577 221.227 192.799 222.044 192.825 223.026C192.851 224.008 193.671 224.783 194.657 224.757C195.643 224.731 196.421 223.914 196.394 222.932Z" fill="url(#paint48_linear_1011_673)"/>
<path d="M173.404 190.598C174.212 191.951 175.968 192.394 177.325 191.588C178.682 190.782 179.126 189.033 178.318 187.681C177.509 186.328 175.754 185.885 174.396 186.691C173.04 187.497 172.595 189.246 173.404 190.598Z" fill="url(#paint49_linear_1011_673)"/>
<path d="M195.006 196.938C195.864 198.373 197.726 198.842 199.165 197.988C200.605 197.133 201.076 195.278 200.218 193.844C199.361 192.409 197.499 191.94 196.059 192.794C194.62 193.649 194.149 195.504 195.006 196.938Z" fill="url(#paint50_linear_1011_673)"/>
<path d="M218.409 133.934C219.266 135.368 221.128 135.837 222.568 134.983C224.007 134.128 224.478 132.273 223.621 130.839C222.763 129.405 220.901 128.935 219.462 129.789C218.022 130.644 217.551 132.499 218.409 133.934Z" fill="url(#paint51_linear_1011_673)"/>
<path d="M245.251 326.057C245.209 324.484 246.455 323.174 248.034 323.132C249.613 323.091 250.928 324.332 250.97 325.906C251.012 327.479 249.765 328.789 248.186 328.83C246.607 328.872 245.293 327.631 245.251 326.057Z" fill="url(#paint52_linear_1011_673)"/>
<path d="M247.813 341.82C248.799 341.82 249.598 341.024 249.598 340.042C249.598 339.059 248.799 338.263 247.813 338.263C246.827 338.263 246.027 339.059 246.027 340.042C246.027 341.024 246.827 341.82 247.813 341.82Z" fill="url(#paint53_linear_1011_673)"/>
<path d="M144.747 350.668C144.721 349.686 145.498 348.869 146.484 348.842C147.469 348.816 148.29 349.591 148.316 350.573C148.342 351.556 147.564 352.373 146.579 352.399C145.593 352.425 144.773 351.65 144.747 350.668Z" fill="url(#paint54_linear_1011_673)"/>
<path d="M277.954 340.547C276.449 338.682 278.55 336.474 280.499 337.873C282.005 339.738 279.903 341.946 277.954 340.547Z" fill="url(#paint55_linear_1011_673)"/>
<path d="M287.688 364.713C286.183 362.848 288.285 360.639 290.234 362.038C291.739 363.903 289.637 366.112 287.688 364.713Z" fill="url(#paint56_linear_1011_673)"/>
<path d="M263.848 334.719C264.834 334.719 265.633 333.922 265.633 332.94C265.633 331.958 264.834 331.161 263.848 331.161C262.862 331.161 262.062 331.958 262.062 332.94C262.062 333.922 262.862 334.719 263.848 334.719Z" fill="url(#paint57_linear_1011_673)"/>
<path d="M299.918 355.872C300.904 355.872 301.703 355.076 301.703 354.093C301.703 353.111 300.904 352.314 299.918 352.314C298.932 352.314 298.133 353.111 298.133 354.093C298.133 355.076 298.932 355.872 299.918 355.872Z" fill="url(#paint58_linear_1011_673)"/>
<path d="M277.461 356.467C278.447 356.467 279.246 355.67 279.246 354.688C279.246 353.706 278.447 352.909 277.461 352.909C276.475 352.909 275.676 353.706 275.676 354.688C275.676 355.67 276.475 356.467 277.461 356.467Z" fill="url(#paint59_linear_1011_673)"/>
<path d="M291.281 340.042C292.267 340.042 293.067 339.245 293.067 338.263C293.067 337.28 292.267 336.484 291.281 336.484C290.295 336.484 289.496 337.28 289.496 338.263C289.496 339.245 290.295 340.042 291.281 340.042Z" fill="url(#paint60_linear_1011_673)"/>
<path d="M242.84 297.602C243.826 297.602 244.625 296.806 244.625 295.823C244.625 294.841 243.826 294.044 242.84 294.044C241.854 294.044 241.055 294.841 241.055 295.823C241.055 296.806 241.854 297.602 242.84 297.602Z" fill="url(#paint61_linear_1011_673)"/>
<path d="M210.242 292.359C211.228 292.359 212.028 291.562 212.028 290.58C212.028 289.597 211.228 288.801 210.242 288.801C209.256 288.801 208.457 289.597 208.457 290.58C208.457 291.562 209.256 292.359 210.242 292.359Z" fill="url(#paint62_linear_1011_673)"/>
<path d="M234.41 307.424C235.396 307.424 236.196 306.628 236.196 305.645C236.196 304.663 235.396 303.866 234.41 303.866C233.424 303.866 232.625 304.663 232.625 305.645C232.625 306.628 233.424 307.424 234.41 307.424Z" fill="url(#paint63_linear_1011_673)"/>
<path d="M215.032 276.749C215.006 275.767 215.783 274.95 216.769 274.923C217.755 274.897 218.575 275.672 218.601 276.654C218.627 277.636 217.85 278.454 216.864 278.48C215.878 278.506 215.058 277.731 215.032 276.749Z" fill="url(#paint64_linear_1011_673)"/>
<path d="M238.777 323.59C238.724 321.626 237.084 320.076 235.112 320.128C233.141 320.18 231.586 321.815 231.638 323.779C231.69 325.743 233.331 327.293 235.302 327.241C237.273 327.189 238.829 325.554 238.777 323.59Z" fill="url(#paint65_linear_1011_673)"/>
<path d="M267.39 347.421C267.337 345.457 265.697 343.907 263.726 343.959C261.754 344.011 260.199 345.645 260.251 347.61C260.304 349.574 261.944 351.124 263.915 351.072C265.887 351.02 267.442 349.385 267.39 347.421Z" fill="url(#paint66_linear_1011_673)"/>
<path d="M228.974 313.124C228.932 311.55 227.617 310.308 226.038 310.35C224.459 310.392 223.213 311.702 223.255 313.275C223.297 314.848 224.611 316.09 226.19 316.048C227.769 316.007 229.015 314.697 228.974 313.124Z" fill="url(#paint67_linear_1011_673)"/>
<path d="M246.837 275.907C246.795 274.333 245.481 273.092 243.902 273.133C242.322 273.175 241.076 274.485 241.118 276.058C241.16 277.632 242.474 278.873 244.054 278.831C245.633 278.79 246.879 277.48 246.837 275.907Z" fill="url(#paint68_linear_1011_673)"/>
<path d="M172.673 337.961C172.631 336.387 171.317 335.146 169.738 335.188C168.158 335.229 166.912 336.539 166.954 338.112C166.996 339.686 168.31 340.927 169.889 340.886C171.469 340.844 172.715 339.534 172.673 337.961Z" fill="url(#paint69_linear_1011_673)"/>
<path d="M226.105 325.933C226.079 324.951 225.259 324.176 224.273 324.202C223.287 324.228 222.51 325.045 222.536 326.027C222.562 327.009 223.382 327.784 224.368 327.758C225.353 327.732 226.131 326.915 226.105 325.933Z" fill="url(#paint70_linear_1011_673)"/>
<path d="M237.019 258.192C236.993 257.21 236.173 256.435 235.187 256.461C234.201 256.487 233.424 257.304 233.45 258.287C233.476 259.269 234.296 260.044 235.282 260.018C236.268 259.991 237.045 259.174 237.019 258.192Z" fill="url(#paint71_linear_1011_673)"/>
<path d="M236.195 336.278C236.169 335.296 235.349 334.521 234.363 334.548C233.377 334.574 232.6 335.391 232.626 336.373C232.652 337.355 233.472 338.13 234.458 338.104C235.443 338.078 236.221 337.261 236.195 336.278Z" fill="url(#paint72_linear_1011_673)"/>
<path d="M240.492 357.232C240.466 356.25 239.645 355.475 238.66 355.501C237.674 355.527 236.896 356.344 236.923 357.327C236.949 358.309 237.769 359.084 238.755 359.058C239.74 359.032 240.518 358.214 240.492 357.232Z" fill="url(#paint73_linear_1011_673)"/>
<path d="M228.761 347.817C228.966 346.558 227.855 345.509 226.604 345.78C225.909 345.93 225.353 346.515 225.239 347.214C225.035 348.473 226.145 349.523 227.396 349.252C228.091 349.101 228.647 348.517 228.761 347.817Z" fill="url(#paint74_linear_1011_673)"/>
<path d="M183.796 359.081C184.001 357.822 182.89 356.773 181.639 357.044C180.945 357.194 180.388 357.779 180.275 358.478C180.07 359.737 181.18 360.787 182.431 360.516C183.126 360.365 183.682 359.781 183.796 359.081Z" fill="url(#paint75_linear_1011_673)"/>
<path d="M191.679 335.282C191.653 334.3 190.833 333.525 189.847 333.551C188.862 333.578 188.084 334.395 188.11 335.377C188.136 336.359 188.956 337.134 189.942 337.108C190.928 337.082 191.706 336.264 191.679 335.282Z" fill="url(#paint76_linear_1011_673)"/>
<path d="M200.23 323.638C200.204 322.656 199.384 321.881 198.398 321.907C197.412 321.933 196.635 322.75 196.661 323.732C196.687 324.714 197.507 325.489 198.493 325.463C199.479 325.437 200.256 324.62 200.23 323.638Z" fill="url(#paint77_linear_1011_673)"/>
<path d="M207.984 338.216C207.958 337.234 207.138 336.458 206.152 336.485C205.166 336.511 204.389 337.328 204.415 338.31C204.441 339.292 205.261 340.067 206.247 340.041C207.232 340.015 208.01 339.198 207.984 338.216Z" fill="url(#paint78_linear_1011_673)"/>
<path d="M200.23 349.199C200.204 348.217 199.384 347.442 198.398 347.468C197.412 347.494 196.635 348.311 196.661 349.293C196.687 350.276 197.507 351.051 198.493 351.024C199.478 350.998 200.256 350.181 200.23 349.199Z" fill="url(#paint79_linear_1011_673)"/>
<path d="M241.377 314.351C242.235 315.785 244.097 316.255 245.536 315.4C246.976 314.546 247.447 312.69 246.589 311.256C245.732 309.822 243.87 309.352 242.43 310.207C240.991 311.062 240.52 312.917 241.377 314.351Z" fill="url(#paint80_linear_1011_673)"/>
<path d="M214.217 345.56C215.075 346.994 216.937 347.464 218.376 346.609C219.816 345.755 220.287 343.899 219.429 342.465C218.572 341.031 216.71 340.561 215.27 341.416C213.831 342.271 213.359 344.126 214.217 345.56Z" fill="url(#paint81_linear_1011_673)"/>
<path d="M214.217 240.274C215.075 241.708 216.937 242.178 218.376 241.323C219.816 240.469 220.287 238.613 219.429 237.179C218.572 235.745 216.71 235.275 215.27 236.13C213.831 236.984 213.359 238.84 214.217 240.274Z" fill="url(#paint82_linear_1011_673)"/>
<defs>
<linearGradient id="paint0_linear_1011_673" x1="519.325" y1="592.114" x2="113.203" y2="85.9244" gradientUnits="userSpaceOnUse">
<stop stop-color="#DAE3FE"/>
<stop offset="1" stop-color="#E9EFFD"/>
</linearGradient>
<linearGradient id="paint1_linear_1011_673" x1="253.973" y1="51.3484" x2="-65.3137" y2="459.55" gradientUnits="userSpaceOnUse">
<stop stop-color="#09005D"/>
<stop offset="1" stop-color="#1A0F91"/>
</linearGradient>
<linearGradient id="paint2_linear_1011_673" x1="200.186" y1="47.4106" x2="45.381" y2="391.163" gradientUnits="userSpaceOnUse">
<stop stop-color="#4F52FF"/>
<stop offset="1" stop-color="#4042E2"/>
</linearGradient>
<linearGradient id="paint3_linear_1011_673" x1="98.8013" y1="133.722" x2="25.0955" y2="255.794" gradientUnits="userSpaceOnUse">
<stop stop-color="#E1473D"/>
<stop offset="1" stop-color="#E9605A"/>
</linearGradient>
<linearGradient id="paint4_linear_1011_673" x1="168.971" y1="-19.8701" x2="60.1789" y2="85.3897" gradientUnits="userSpaceOnUse">
<stop stop-color="#09005D"/>
<stop offset="1" stop-color="#1A0F91"/>
</linearGradient>
<linearGradient id="paint5_linear_1011_673" x1="173.058" y1="-16.9383" x2="80.4107" y2="101.689" gradientUnits="userSpaceOnUse">
<stop stop-color="#09005D"/>
<stop offset="1" stop-color="#1A0F91"/>
</linearGradient>
<linearGradient id="paint6_linear_1011_673" x1="177.67" y1="43.2597" x2="229.974" y2="412.141" gradientUnits="userSpaceOnUse">
<stop stop-color="#4F52FF"/>
<stop offset="1" stop-color="#4042E2"/>
</linearGradient>
<linearGradient id="paint7_linear_1011_673" x1="246.458" y1="404.291" x2="207.915" y2="197.677" gradientUnits="userSpaceOnUse">
<stop stop-color="#FEBBBA"/>
<stop offset="1" stop-color="#FF928E"/>
</linearGradient>
<linearGradient id="paint8_linear_1011_673" x1="289.826" y1="252.771" x2="242.575" y2="386.713" gradientUnits="userSpaceOnUse">
<stop stop-color="#FF928E"/>
<stop offset="1" stop-color="#FE7062"/>
</linearGradient>
<linearGradient id="paint9_linear_1011_673" x1="226.594" y1="136.628" x2="234.392" y2="348.639" gradientUnits="userSpaceOnUse">
<stop stop-color="#FEBBBA"/>
<stop offset="1" stop-color="#FF928E"/>
</linearGradient>
<linearGradient id="paint10_linear_1011_673" x1="160.964" y1="139.041" x2="168.762" y2="351.053" gradientUnits="userSpaceOnUse">
<stop stop-color="#FEBBBA"/>
<stop offset="1" stop-color="#FF928E"/>
</linearGradient>
<linearGradient id="paint11_linear_1011_673" x1="290.993" y1="134.26" x2="298.791" y2="346.271" gradientUnits="userSpaceOnUse">
<stop stop-color="#FEBBBA"/>
<stop offset="1" stop-color="#FF928E"/>
</linearGradient>
<linearGradient id="paint12_linear_1011_673" x1="213.977" y1="38.1129" x2="266.28" y2="406.995" gradientUnits="userSpaceOnUse">
<stop stop-color="#4F52FF"/>
<stop offset="1" stop-color="#4042E2"/>
</linearGradient>
<linearGradient id="paint13_linear_1011_673" x1="390.877" y1="145.933" x2="381.837" y2="211.601" gradientUnits="userSpaceOnUse">
<stop stop-color="#E1473D"/>
<stop offset="1" stop-color="#E9605A"/>
</linearGradient>
<linearGradient id="paint14_linear_1011_673" x1="197.355" y1="251.898" x2="155.058" y2="344.285" gradientUnits="userSpaceOnUse">
<stop stop-color="#E1473D"/>
<stop offset="1" stop-color="#E9605A"/>
</linearGradient>
<linearGradient id="paint15_linear_1011_673" x1="407.432" y1="99.5166" x2="450.475" y2="232.498" gradientUnits="userSpaceOnUse">
<stop stop-color="#09005D"/>
<stop offset="1" stop-color="#1A0F91"/>
</linearGradient>
<linearGradient id="paint16_linear_1011_673" x1="583.299" y1="51.5131" x2="469.155" y2="172.74" gradientUnits="userSpaceOnUse">
<stop stop-color="#E1473D"/>
<stop offset="1" stop-color="#E9605A"/>
</linearGradient>
<linearGradient id="paint17_linear_1011_673" x1="425.485" y1="415.352" x2="433.38" y2="140.477" gradientUnits="userSpaceOnUse">
<stop stop-color="#FF928E"/>
<stop offset="1" stop-color="#FE7062"/>
</linearGradient>
<linearGradient id="paint18_linear_1011_673" x1="428.192" y1="413.27" x2="428.192" y2="228.82" gradientUnits="userSpaceOnUse">
<stop stop-color="#FEBBBA"/>
<stop offset="1" stop-color="#FF928E"/>
</linearGradient>
<linearGradient id="paint19_linear_1011_673" x1="437.658" y1="224.896" x2="402.9" y2="383.325" gradientUnits="userSpaceOnUse">
<stop stop-color="#FF928E"/>
<stop offset="1" stop-color="#FE7062"/>
</linearGradient>
<linearGradient id="paint20_linear_1011_673" x1="614.967" y1="105.5" x2="536.375" y2="222.146" gradientUnits="userSpaceOnUse">
<stop stop-color="#E1473D"/>
<stop offset="1" stop-color="#E9605A"/>
</linearGradient>
<linearGradient id="paint21_linear_1011_673" x1="467.573" y1="201.326" x2="391.296" y2="401.026" gradientUnits="userSpaceOnUse">
<stop stop-color="#E1473D"/>
<stop offset="1" stop-color="#E9605A"/>
</linearGradient>
<linearGradient id="paint22_linear_1011_673" x1="425.759" y1="341.125" x2="429.9" y2="465.818" gradientUnits="userSpaceOnUse">
<stop stop-color="#E1473D"/>
<stop offset="1" stop-color="#E9605A"/>
</linearGradient>
<linearGradient id="paint23_linear_1011_673" x1="649.902" y1="129.041" x2="571.31" y2="245.688" gradientUnits="userSpaceOnUse">
<stop stop-color="#E1473D"/>
<stop offset="1" stop-color="#E9605A"/>
</linearGradient>
<linearGradient id="paint24_linear_1011_673" x1="215.292" y1="196.363" x2="207.15" y2="215.472" gradientUnits="userSpaceOnUse">
<stop stop-color="#FF928E"/>
<stop offset="1" stop-color="#FE7062"/>
</linearGradient>
<linearGradient id="paint25_linear_1011_673" x1="263.502" y1="212.801" x2="254.867" y2="233.067" gradientUnits="userSpaceOnUse">
<stop stop-color="#FF928E"/>
<stop offset="1" stop-color="#FE7062"/>
</linearGradient>
<linearGradient id="paint26_linear_1011_673" x1="268.205" y1="199.525" x2="259.57" y2="219.792" gradientUnits="userSpaceOnUse">
<stop stop-color="#FF928E"/>
<stop offset="1" stop-color="#FE7062"/>
</linearGradient>
<linearGradient id="paint27_linear_1011_673" x1="264.783" y1="180.546" x2="254.62" y2="204.398" gradientUnits="userSpaceOnUse">
<stop stop-color="#FF928E"/>
<stop offset="1" stop-color="#FE7062"/>
</linearGradient>
<linearGradient id="paint28_linear_1011_673" x1="281.386" y1="181.25" x2="273.244" y2="200.358" gradientUnits="userSpaceOnUse">
<stop stop-color="#FF928E"/>
<stop offset="1" stop-color="#FE7062"/>
</linearGradient>
<linearGradient id="paint29_linear_1011_673" x1="241.585" y1="218.028" x2="233.443" y2="237.136" gradientUnits="userSpaceOnUse">
<stop stop-color="#FF928E"/>
<stop offset="1" stop-color="#FE7062"/>
</linearGradient>
<linearGradient id="paint30_linear_1011_673" x1="273.073" y1="195.631" x2="267.991" y2="207.557" gradientUnits="userSpaceOnUse">
<stop stop-color="#FF928E"/>
<stop offset="1" stop-color="#FE7062"/>
</linearGradient>
<linearGradient id="paint31_linear_1011_673" x1="241.089" y1="233.943" x2="236.007" y2="245.87" gradientUnits="userSpaceOnUse">
<stop stop-color="#FF928E"/>
<stop offset="1" stop-color="#FE7062"/>
</linearGradient>
<linearGradient id="paint32_linear_1011_673" x1="253.772" y1="207.786" x2="248.691" y2="219.712" gradientUnits="userSpaceOnUse">
<stop stop-color="#FF928E"/>
<stop offset="1" stop-color="#FE7062"/>
</linearGradient>
<linearGradient id="paint33_linear_1011_673" x1="278.765" y1="136.529" x2="273.683" y2="148.455" gradientUnits="userSpaceOnUse">
<stop stop-color="#FF928E"/>
<stop offset="1" stop-color="#FE7062"/>
</linearGradient>
<linearGradient id="paint34_linear_1011_673" x1="275.097" y1="167.416" x2="270.015" y2="179.342" gradientUnits="userSpaceOnUse">
<stop stop-color="#FF928E"/>
<stop offset="1" stop-color="#FE7062"/>
</linearGradient>
<linearGradient id="paint35_linear_1011_673" x1="280.573" y1="175.389" x2="275.492" y2="187.315" gradientUnits="userSpaceOnUse">
<stop stop-color="#FF928E"/>
<stop offset="1" stop-color="#FE7062"/>
</linearGradient>
<linearGradient id="paint36_linear_1011_673" x1="231.417" y1="234.201" x2="226.335" y2="246.127" gradientUnits="userSpaceOnUse">
<stop stop-color="#FF928E"/>
<stop offset="1" stop-color="#FE7062"/>
</linearGradient>
<linearGradient id="paint37_linear_1011_673" x1="227.944" y1="219.903" x2="222.863" y2="231.829" gradientUnits="userSpaceOnUse">
<stop stop-color="#FF928E"/>
<stop offset="1" stop-color="#FE7062"/>
</linearGradient>
<linearGradient id="paint38_linear_1011_673" x1="289.89" y1="160.532" x2="284.808" y2="172.458" gradientUnits="userSpaceOnUse">
<stop stop-color="#FF928E"/>
<stop offset="1" stop-color="#FE7062"/>
</linearGradient>
<linearGradient id="paint39_linear_1011_673" x1="257.921" y1="125.863" x2="252.839" y2="137.789" gradientUnits="userSpaceOnUse">
<stop stop-color="#FF928E"/>
<stop offset="1" stop-color="#FE7062"/>
</linearGradient>
<linearGradient id="paint40_linear_1011_673" x1="212.37" y1="216.54" x2="207.288" y2="228.466" gradientUnits="userSpaceOnUse">
<stop stop-color="#FF928E"/>
<stop offset="1" stop-color="#FE7062"/>
</linearGradient>
<linearGradient id="paint41_linear_1011_673" x1="249.77" y1="201.452" x2="266.237" y2="188.736" gradientUnits="userSpaceOnUse">
<stop stop-color="#FF928E"/>
<stop offset="1" stop-color="#FE7062"/>
</linearGradient>
<linearGradient id="paint42_linear_1011_673" x1="170.867" y1="154.809" x2="180.012" y2="173.461" gradientUnits="userSpaceOnUse">
<stop stop-color="#FF928E"/>
<stop offset="1" stop-color="#FE7062"/>
</linearGradient>
<linearGradient id="paint43_linear_1011_673" x1="182.151" y1="164.071" x2="191.851" y2="183.854" gradientUnits="userSpaceOnUse">
<stop stop-color="#FF928E"/>
<stop offset="1" stop-color="#FE7062"/>
</linearGradient>
<linearGradient id="paint44_linear_1011_673" x1="185.618" y1="190.518" x2="197.035" y2="213.801" gradientUnits="userSpaceOnUse">
<stop stop-color="#FF928E"/>
<stop offset="1" stop-color="#FE7062"/>
</linearGradient>
<linearGradient id="paint45_linear_1011_673" x1="178.472" y1="183.974" x2="187.618" y2="202.626" gradientUnits="userSpaceOnUse">
<stop stop-color="#FF928E"/>
<stop offset="1" stop-color="#FE7062"/>
</linearGradient>
<linearGradient id="paint46_linear_1011_673" x1="179.626" y1="202.725" x2="185.334" y2="214.366" gradientUnits="userSpaceOnUse">
<stop stop-color="#FF928E"/>
<stop offset="1" stop-color="#FE7062"/>
</linearGradient>
<linearGradient id="paint47_linear_1011_673" x1="230.34" y1="128.501" x2="236.049" y2="140.143" gradientUnits="userSpaceOnUse">
<stop stop-color="#FF928E"/>
<stop offset="1" stop-color="#FE7062"/>
</linearGradient>
<linearGradient id="paint48_linear_1011_673" x1="189.715" y1="213.069" x2="195.424" y2="224.711" gradientUnits="userSpaceOnUse">
<stop stop-color="#FF928E"/>
<stop offset="1" stop-color="#FE7062"/>
</linearGradient>
<linearGradient id="paint49_linear_1011_673" x1="190.491" y1="199.171" x2="173.368" y2="187.346" gradientUnits="userSpaceOnUse">
<stop stop-color="#FF928E"/>
<stop offset="1" stop-color="#FE7062"/>
</linearGradient>
<linearGradient id="paint50_linear_1011_673" x1="213.13" y1="206.03" x2="194.969" y2="193.489" gradientUnits="userSpaceOnUse">
<stop stop-color="#FF928E"/>
<stop offset="1" stop-color="#FE7062"/>
</linearGradient>
<linearGradient id="paint51_linear_1011_673" x1="236.532" y1="143.025" x2="218.371" y2="130.484" gradientUnits="userSpaceOnUse">
<stop stop-color="#FF928E"/>
<stop offset="1" stop-color="#FE7062"/>
</linearGradient>
<linearGradient id="paint52_linear_1011_673" x1="255.093" y1="309.711" x2="246.951" y2="328.819" gradientUnits="userSpaceOnUse">
<stop stop-color="#FF928E"/>
<stop offset="1" stop-color="#FE7062"/>
</linearGradient>
<linearGradient id="paint53_linear_1011_673" x1="252.171" y1="329.886" x2="247.089" y2="341.812" gradientUnits="userSpaceOnUse">
<stop stop-color="#FF928E"/>
<stop offset="1" stop-color="#FE7062"/>
</linearGradient>
<linearGradient id="paint54_linear_1011_673" x1="150.89" y1="340.465" x2="145.808" y2="352.392" gradientUnits="userSpaceOnUse">
<stop stop-color="#FF928E"/>
<stop offset="1" stop-color="#FE7062"/>
</linearGradient>
<linearGradient id="paint55_linear_1011_673" x1="283.615" y1="328.986" x2="278.498" y2="340.993" gradientUnits="userSpaceOnUse">
<stop stop-color="#FF928E"/>
<stop offset="1" stop-color="#FE7062"/>
</linearGradient>
<linearGradient id="paint56_linear_1011_673" x1="293.349" y1="353.151" x2="288.233" y2="365.158" gradientUnits="userSpaceOnUse">
<stop stop-color="#FF928E"/>
<stop offset="1" stop-color="#FE7062"/>
</linearGradient>
<linearGradient id="paint57_linear_1011_673" x1="268.206" y1="322.785" x2="263.124" y2="334.711" gradientUnits="userSpaceOnUse">
<stop stop-color="#FF928E"/>
<stop offset="1" stop-color="#FE7062"/>
</linearGradient>
<linearGradient id="paint58_linear_1011_673" x1="304.276" y1="343.938" x2="299.195" y2="355.864" gradientUnits="userSpaceOnUse">
<stop stop-color="#FF928E"/>
<stop offset="1" stop-color="#FE7062"/>
</linearGradient>
<linearGradient id="paint59_linear_1011_673" x1="281.819" y1="344.533" x2="276.738" y2="356.459" gradientUnits="userSpaceOnUse">
<stop stop-color="#FF928E"/>
<stop offset="1" stop-color="#FE7062"/>
</linearGradient>
<linearGradient id="paint60_linear_1011_673" x1="295.64" y1="328.107" x2="290.558" y2="340.034" gradientUnits="userSpaceOnUse">
<stop stop-color="#FF928E"/>
<stop offset="1" stop-color="#FE7062"/>
</linearGradient>
<linearGradient id="paint61_linear_1011_673" x1="247.198" y1="285.668" x2="242.117" y2="297.594" gradientUnits="userSpaceOnUse">
<stop stop-color="#FF928E"/>
<stop offset="1" stop-color="#FE7062"/>
</linearGradient>
<linearGradient id="paint62_linear_1011_673" x1="214.6" y1="280.424" x2="209.519" y2="292.351" gradientUnits="userSpaceOnUse">
<stop stop-color="#FF928E"/>
<stop offset="1" stop-color="#FE7062"/>
</linearGradient>
<linearGradient id="paint63_linear_1011_673" x1="238.768" y1="295.49" x2="233.687" y2="307.416" gradientUnits="userSpaceOnUse">
<stop stop-color="#FF928E"/>
<stop offset="1" stop-color="#FE7062"/>
</linearGradient>
<linearGradient id="paint64_linear_1011_673" x1="221.175" y1="266.546" x2="216.093" y2="278.473" gradientUnits="userSpaceOnUse">
<stop stop-color="#FF928E"/>
<stop offset="1" stop-color="#FE7062"/>
</linearGradient>
<linearGradient id="paint65_linear_1011_673" x1="225.419" y1="303.865" x2="236.835" y2="327.148" gradientUnits="userSpaceOnUse">
<stop stop-color="#FF928E"/>
<stop offset="1" stop-color="#FE7062"/>
</linearGradient>
<linearGradient id="paint66_linear_1011_673" x1="254.032" y1="327.695" x2="265.449" y2="350.978" gradientUnits="userSpaceOnUse">
<stop stop-color="#FF928E"/>
<stop offset="1" stop-color="#FE7062"/>
</linearGradient>
<linearGradient id="paint67_linear_1011_673" x1="218.273" y1="297.322" x2="227.418" y2="315.973" gradientUnits="userSpaceOnUse">
<stop stop-color="#FF928E"/>
<stop offset="1" stop-color="#FE7062"/>
</linearGradient>
<linearGradient id="paint68_linear_1011_673" x1="236.136" y1="260.105" x2="245.282" y2="278.756" gradientUnits="userSpaceOnUse">
<stop stop-color="#FF928E"/>
<stop offset="1" stop-color="#FE7062"/>
</linearGradient>
<linearGradient id="paint69_linear_1011_673" x1="161.972" y1="322.159" x2="171.118" y2="340.811" gradientUnits="userSpaceOnUse">
<stop stop-color="#FF928E"/>
<stop offset="1" stop-color="#FE7062"/>
</linearGradient>
<linearGradient id="paint70_linear_1011_673" x1="219.426" y1="316.07" x2="225.134" y2="327.712" gradientUnits="userSpaceOnUse">
<stop stop-color="#FF928E"/>
<stop offset="1" stop-color="#FE7062"/>
</linearGradient>
<linearGradient id="paint71_linear_1011_673" x1="230.34" y1="248.329" x2="236.049" y2="259.971" gradientUnits="userSpaceOnUse">
<stop stop-color="#FF928E"/>
<stop offset="1" stop-color="#FE7062"/>
</linearGradient>
<linearGradient id="paint72_linear_1011_673" x1="229.516" y1="326.416" x2="235.224" y2="338.057" gradientUnits="userSpaceOnUse">
<stop stop-color="#FF928E"/>
<stop offset="1" stop-color="#FE7062"/>
</linearGradient>
<linearGradient id="paint73_linear_1011_673" x1="233.813" y1="347.369" x2="239.521" y2="359.011" gradientUnits="userSpaceOnUse">
<stop stop-color="#FF928E"/>
<stop offset="1" stop-color="#FE7062"/>
</linearGradient>
<linearGradient id="paint74_linear_1011_673" x1="222.1" y1="337.594" x2="227.815" y2="349.249" gradientUnits="userSpaceOnUse">
<stop stop-color="#FF928E"/>
<stop offset="1" stop-color="#FE7062"/>
</linearGradient>
<linearGradient id="paint75_linear_1011_673" x1="177.136" y1="348.858" x2="182.85" y2="360.513" gradientUnits="userSpaceOnUse">
<stop stop-color="#FF928E"/>
<stop offset="1" stop-color="#FE7062"/>
</linearGradient>
<linearGradient id="paint76_linear_1011_673" x1="185.001" y1="325.42" x2="190.709" y2="337.061" gradientUnits="userSpaceOnUse">
<stop stop-color="#FF928E"/>
<stop offset="1" stop-color="#FE7062"/>
</linearGradient>
<linearGradient id="paint77_linear_1011_673" x1="193.551" y1="313.775" x2="199.26" y2="325.417" gradientUnits="userSpaceOnUse">
<stop stop-color="#FF928E"/>
<stop offset="1" stop-color="#FE7062"/>
</linearGradient>
<linearGradient id="paint78_linear_1011_673" x1="201.305" y1="328.353" x2="207.013" y2="339.994" gradientUnits="userSpaceOnUse">
<stop stop-color="#FF928E"/>
<stop offset="1" stop-color="#FE7062"/>
</linearGradient>
<linearGradient id="paint79_linear_1011_673" x1="193.551" y1="339.336" x2="199.259" y2="350.978" gradientUnits="userSpaceOnUse">
<stop stop-color="#FF928E"/>
<stop offset="1" stop-color="#FE7062"/>
</linearGradient>
<linearGradient id="paint80_linear_1011_673" x1="259.501" y1="323.443" x2="241.34" y2="310.901" gradientUnits="userSpaceOnUse">
<stop stop-color="#FF928E"/>
<stop offset="1" stop-color="#FE7062"/>
</linearGradient>
<linearGradient id="paint81_linear_1011_673" x1="232.341" y1="354.652" x2="214.179" y2="342.11" gradientUnits="userSpaceOnUse">
<stop stop-color="#FF928E"/>
<stop offset="1" stop-color="#FE7062"/>
</linearGradient>
<linearGradient id="paint82_linear_1011_673" x1="232.341" y1="249.366" x2="214.18" y2="236.824" gradientUnits="userSpaceOnUse">
<stop stop-color="#FF928E"/>
<stop offset="1" stop-color="#FE7062"/>
</linearGradient>
</defs>
</svg>
